<svg width="200" height="58" viewBox="0 0 200 58" fill="none" xmlns="http://www.w3.org/2000/svg">
<path d="M36.0028 6.292C35.816 6.49286 35.7085 7.30566 36.2691 7.656C36.4466 7.76811 36.6475 7.83351 36.8296 7.92227C39.8753 9.39838 42.0101 11.0754 43.8552 13.0373C46.6393 15.9942 48.0406 19.4276 48.5031 23.286C48.9702 27.1678 48.1574 36.2627 47.1298 40.934C46.4618 43.9703 45.8452 46.8571 45.8452 46.8571C45.5042 47.9923 45.1071 47.3943 44.2709 46.6096C44.2523 46.5956 44.2429 46.5722 44.2289 46.5535L37.2641 40.224C36.9184 39.6868 36.2037 39.528 35.6618 39.8736C35.1246 40.2193 34.9658 40.934 35.3115 41.4759L44.9483 56.6107C45.1258 56.905 45.4061 57.1292 45.733 57.232C45.8872 57.2834 46.0554 57.3348 46.2189 57.3862C47.3213 57.7458 49.0076 57.6477 49.3533 56.5406L49.4747 56.1529C51.0816 51.0192 52.1654 45.4558 53.2211 40.6677C54.2768 35.8797 55.1409 26.4952 54.6318 22.2443C54.1179 17.9655 52.5391 14.0509 49.372 10.683C47.2092 8.38472 43.2293 5.77349 38.9597 4.46087C37.862 4.12454 37.2127 4.05447 36.9231 4.4235" fill="url(#paint0_linear_253_486)"/>
<path d="M18.4575 51.6306C18.6537 51.4344 18.7845 50.6263 18.238 50.2573C18.0651 50.1405 17.8643 50.0704 17.6868 49.9723C14.6925 48.3934 12.6138 46.6511 10.834 44.6284C8.15273 41.5828 6.86347 38.1027 6.52714 34.2302C6.19081 30.3344 7.2979 21.2722 8.48439 16.6383C9.25048 13.6253 9.96518 10.7618 9.96518 10.7618C10.3436 9.64074 10.7219 10.248 11.5301 11.0608C11.5441 11.0748 11.5534 11.0982 11.5674 11.1169L18.3174 17.6706C18.6444 18.2218 19.3544 18.404 19.9056 18.077C20.4568 17.75 20.639 17.04 20.312 16.4888L11.1797 1.04564C11.0115 0.742007 10.7406 0.513115 10.4136 0.396334C10.2595 0.340279 10.0913 0.284224 9.93715 0.228169C8.84408 -0.168888 7.15776 -0.122173 6.77472 0.9709L6.63925 1.35394C4.8595 6.43159 3.59359 11.953 2.38374 16.7037C1.17389 21.4543 -0.0032686 30.8015 0.36576 35.071C0.734789 39.3639 2.18755 43.3298 5.24255 46.8006C7.32593 49.1689 11.2171 51.9062 15.4446 53.3637C16.533 53.7374 17.1776 53.8308 17.4766 53.4664" fill="url(#paint1_linear_253_486)"/>
<path d="M32.2518 24.7529C31.4903 22.6508 29.4584 21.2261 27.0807 21.1327C25.6186 21.072 24.2266 21.5251 23.012 22.4033L23.2362 21.2635C23.283 21.0299 23.2456 20.801 23.1568 20.5955H23.1615L23.1428 20.5581C23.1008 20.4694 23.0447 20.3806 22.9793 20.3059L22.4982 19.5631C22.1011 18.9699 21.2463 18.8811 20.7652 19.4043C20.7418 19.4277 20.7231 19.451 20.6998 19.4791C20.4008 19.8481 20.3868 20.3713 20.6437 20.773C20.7745 20.9785 20.8819 21.1373 20.966 21.2728C20.6297 22.8704 20.0224 25.832 19.9477 26.5046C19.8683 27.0278 20.1345 27.5603 20.639 27.7892C21.251 28.0695 21.9703 27.7986 22.2506 27.1866C23.7968 23.8046 26.0624 23.5244 26.9686 23.5617C28.3326 23.6178 29.5284 24.4306 29.9488 25.5844C30.472 27.0325 29.7293 28.8075 27.9122 30.4518C27.4123 30.9049 27.375 31.671 27.8281 32.1708C28.0103 32.3717 28.2438 32.4978 28.4914 32.5492C28.8558 32.6193 29.2482 32.5259 29.5471 32.2596C32.135 29.9146 33.1159 27.1773 32.2377 24.7576L32.2518 24.7529Z" fill="url(#paint2_linear_253_486)"/>
<path d="M34.4798 36.4962C34.8535 34.7024 35.5448 31.3298 35.4888 31.1896H35.4794C35.4561 30.7552 35.2038 30.3395 34.7741 30.148C34.1622 29.8677 33.4428 30.1386 33.1625 30.7505C31.6163 34.1325 29.3508 34.4128 28.4445 34.3754C27.0805 34.3194 25.8847 33.5066 25.4643 32.3575C24.9411 30.9094 25.6838 29.1343 27.5009 27.4853C28.0008 27.0322 28.0381 26.2661 27.585 25.7663C27.1319 25.2665 26.3658 25.2291 25.866 25.6822C23.2781 28.0272 22.2972 30.7646 23.1754 33.1843C23.834 35.0014 25.4316 36.3047 27.3888 36.6924C27.7018 36.7531 28.0194 36.7905 28.3464 36.8045C29.8085 36.8652 31.1959 36.4168 32.4104 35.5386L32.2049 36.5756C32.1255 36.9773 32.275 37.365 32.5506 37.622L33.2372 38.4721C33.6903 39.0233 34.5499 39.0233 34.9796 38.4534C34.9983 38.4254 35.017 38.4021 35.0357 38.374C35.2973 37.977 35.2552 37.4538 34.9563 37.0848C34.7507 36.8278 34.5966 36.641 34.4845 36.5009L34.4798 36.4962Z" fill="url(#paint3_linear_253_486)"/>
<path d="M88.4748 29.3904V45.282H82.0986V31.4504C82.0986 28.0684 79.9405 25.8589 76.6052 25.8589C73.2699 25.8589 70.7708 28.1151 70.7708 31.5485V45.282H64.3945V20.2674H70.7708V23.0608C72.7327 20.8513 75.4794 19.6788 78.7166 19.6788C84.6024 19.6788 88.4748 23.5046 88.4748 29.3904Z" fill="#E5E5E5"/>
<path d="M91.6606 32.7771C91.6606 25.3218 97.4483 19.6836 105.1 19.6836C112.751 19.6836 118.539 25.3218 118.539 32.7771C118.539 40.2324 112.751 45.8706 105.1 45.8706C97.4483 45.8706 91.6606 40.2324 91.6606 32.7771ZM111.967 32.7771C111.967 28.8533 109.075 25.8637 105.1 25.8637C101.125 25.8637 98.2331 28.8533 98.2331 32.7771C98.2331 36.701 101.176 39.6906 105.1 39.6906C109.024 39.6906 111.967 36.701 111.967 32.7771Z" fill="#E5E5E5"/>
<path d="M147.426 9.96753V45.2822H141.05V42.2926C139.041 44.4974 136.243 45.8708 132.908 45.8708C125.943 45.8708 120.697 40.2326 120.697 32.7773C120.697 25.3219 125.943 19.6837 132.908 19.6837C136.243 19.6837 139.036 21.0571 141.05 23.2619V9.97221H147.426V9.96753ZM141.05 32.7726C141.05 28.8487 138.107 25.8591 134.136 25.8591C130.166 25.8591 127.269 28.8487 127.269 32.7726C127.269 36.6964 130.212 39.686 134.136 39.686C138.06 39.686 141.05 36.6964 141.05 32.7726Z" fill="#E5E5E5"/>
<path d="M152.139 35.3278V20.2723H158.516V34.4449C158.516 37.6307 160.622 39.6907 163.813 39.6907C167.003 39.6907 169.11 37.6307 169.11 34.4449V20.2723H175.486V35.3278C175.486 41.704 170.829 45.8708 163.813 45.8708C156.797 45.8708 152.139 41.704 152.139 35.3278Z" fill="#E5E5E5"/>
<path d="M178.28 42.0449L181.372 37.8267C183.283 39.4944 185.688 40.6201 188.678 40.6201C191.228 40.6201 193.092 39.7887 193.092 38.2658C193.092 36.5982 190.934 36.0096 188.188 35.3743C184.217 34.4915 179.065 33.2629 179.065 27.578C179.065 22.2808 183.722 19.6836 189.267 19.6836C193.531 19.6836 196.722 21.2018 198.978 22.9675L195.886 27.2323C194.073 25.859 191.962 24.9247 189.411 24.9247C187.253 24.9247 185.488 25.6114 185.488 27.0829C185.488 28.7505 187.594 29.2924 190.392 29.8763C194.368 30.7591 199.515 31.9877 199.515 37.6726C199.515 42.9698 194.807 45.8613 188.823 45.8613C184.166 45.8613 180.681 44.0956 178.28 42.0355V42.0449Z" fill="#E5E5E5"/>
<defs>
<linearGradient id="paint0_linear_253_486" x1="35.1284" y1="30.8745" x2="54.782" y2="30.8745" gradientUnits="userSpaceOnUse">
<stop stop-color="#ED775B"/>
<stop offset="0.395833" stop-color="#FF7D61"/>
<stop offset="0.6875" stop-color="#ED775B"/>
<stop offset="1" stop-color="#FE4C46"/>
</linearGradient>
<linearGradient id="paint1_linear_253_486" x1="0.296875" y1="26.8483" x2="20.4745" y2="26.8483" gradientUnits="userSpaceOnUse">
<stop stop-color="#ED775B"/>
<stop offset="0.395833" stop-color="#FF7D61"/>
<stop offset="0.6875" stop-color="#ED775B"/>
<stop offset="1" stop-color="#FE4C46"/>
</linearGradient>
<linearGradient id="paint2_linear_253_486" x1="19.9338" y1="25.8158" x2="32.5523" y2="25.8158" gradientUnits="userSpaceOnUse">
<stop stop-color="#ED775B"/>
<stop offset="0.395833" stop-color="#FF7D61"/>
<stop offset="0.6875" stop-color="#ED775B"/>
<stop offset="1" stop-color="#FE4C46"/>
</linearGradient>
<linearGradient id="paint3_linear_253_486" x1="22.8608" y1="32.1244" x2="35.492" y2="32.1244" gradientUnits="userSpaceOnUse">
<stop stop-color="#ED775B"/>
<stop offset="0.395833" stop-color="#FF7D61"/>
<stop offset="0.6875" stop-color="#ED775B"/>
<stop offset="1" stop-color="#FE4C46"/>
</linearGradient>
</defs>
</svg>
