<svg width="18" height="20" viewBox="0 0 18 20" fill="none" xmlns="http://www.w3.org/2000/svg">
<path fill-rule="evenodd" clip-rule="evenodd" d="M15.8492 15L15.1083 12.6812C14.8185 11.774 14.671 10.8273 14.671 9.87484V7.68C14.671 4.54302 12.132 2 9 2C5.86801 2 3.32903 4.54302 3.32903 7.68V9.87484C3.32903 10.8273 3.18149 11.774 2.89166 12.6812L2.15082 15H15.8492ZM9 0C4.7652 0 1.33221 3.43845 1.33221 7.68V9.87484C1.33221 10.6204 1.21671 11.3615 0.989837 12.0716L0.0764875 14.9304C-0.250512 15.9539 0.511873 17 1.58479 17H16.4152C17.4881 17 18.2505 15.9539 17.9235 14.9304L17.0102 12.0716C16.7833 11.3615 16.6678 10.6204 16.6678 9.87484V7.68C16.6678 3.43845 13.2348 0 9 0Z" fill="#757D95"/>
<path fill-rule="evenodd" clip-rule="evenodd" d="M13 19C13 19.5523 12.5523 20 12 20H6C5.44772 20 5 19.5523 5 19C5 18.4477 5.44772 18 6 18H12C12.5523 18 13 18.4477 13 19Z" fill="#757D95"/>
</svg>
