<svg width="38" height="38" viewBox="0 0 38 38" fill="none" xmlns="http://www.w3.org/2000/svg">
<g clip-path="url(#clip0_407_75)">
<path d="M19.1776 15.674C17.1999 15.674 15.5911 17.2802 15.5911 19.2547C15.5911 21.2292 17.1999 22.8355 19.1776 22.8355C21.1552 22.8355 22.7641 21.2292 22.7641 19.2547C22.7641 17.2802 21.1552 15.674 19.1776 15.674Z" fill="white"/>
<path d="M23.6226 10.0406H14.5456C11.9591 10.0406 9.85535 12.1409 9.85535 14.7233V23.7864C9.85535 26.3687 11.9591 28.4691 14.5456 28.4691H23.6226C26.209 28.4691 28.3128 26.3687 28.3128 23.7864V14.7226C28.3128 12.1403 26.2084 10.0399 23.6226 10.0399V10.0406ZM19.1775 24.8449C16.0904 24.8449 13.5782 22.3373 13.5782 19.2545C13.5782 16.1717 16.0898 13.6641 19.1775 13.6641C22.2653 13.6641 24.7769 16.1717 24.7769 19.2545C24.7769 22.3373 22.2653 24.8449 19.1775 24.8449ZM25.1034 14.6197C24.3671 14.6197 23.7705 14.024 23.7705 13.2889C23.7705 12.5539 24.3671 11.9581 25.1034 11.9581C25.8396 11.9581 26.4363 12.5539 26.4363 13.2889C26.4363 14.024 25.8396 14.6197 25.1034 14.6197Z" fill="white"/>
<path d="M37.8074 0.639648H0.517944V37.8694H37.808V0.639648H37.8074ZM30.4526 23.7861C30.4526 27.5458 27.3885 30.6044 23.6227 30.6044H14.5457C10.78 30.6044 7.71655 27.5458 7.71655 23.7861V14.723C7.71655 10.9632 10.78 7.90471 14.5457 7.90471H23.6227C27.3885 7.90471 30.4526 10.9632 30.4526 14.723V23.7861Z" fill="white"/>
</g>
<defs>
<clipPath id="clip0_407_75">
<rect width="37.2901" height="37.2298" fill="white" transform="translate(0.517944 0.639648)"/>
</clipPath>
</defs>
</svg>
