<svg width="38" height="38" viewBox="0 0 38 38" fill="none" xmlns="http://www.w3.org/2000/svg">
<g clip-path="url(#clip0_407_74)">
<path d="M37.7557 0.639648H0.804565V37.5914H37.7563V0.639648H37.7557ZM12.7416 30.052V30.387C12.6801 30.3977 12.6338 30.4098 12.5868 30.413C12.5284 30.4174 12.4701 30.4142 12.4117 30.4142C10.9082 30.4142 9.40461 30.4142 7.90106 30.4142C7.80273 30.4142 7.70249 30.4269 7.60606 30.3946C7.59654 30.3635 7.58322 30.3406 7.58322 30.3172C7.58195 24.9284 7.58195 19.5396 7.58322 14.1515C7.58322 14.128 7.59591 14.1052 7.59908 14.0925C7.61304 14.0779 7.61812 14.0703 7.6251 14.0665C7.63207 14.0627 7.64096 14.0608 7.6492 14.0602C7.70757 14.057 7.76593 14.0526 7.82367 14.0526C9.4357 14.0538 11.0477 14.0551 12.6598 14.0576C12.675 14.0576 12.6902 14.0678 12.7219 14.0786C12.7276 14.1179 12.7384 14.1648 12.741 14.2124C12.7448 14.279 12.7422 14.3463 12.7422 14.4129C12.7422 19.6259 12.7422 24.8396 12.7422 30.0526L12.7416 30.052ZM10.1507 11.8042C8.59764 11.7991 7.14422 10.5645 7.14422 8.78369C7.14422 6.98892 8.61985 5.73975 10.1748 5.76639C11.7627 5.75371 13.1958 7.05363 13.1819 8.80717C13.1679 10.5366 11.7494 11.8086 10.1507 11.8035V11.8042ZM32.178 30.4383C32.1532 30.4669 32.1488 30.4745 32.1418 30.4789C32.1348 30.4834 32.126 30.4853 32.1184 30.4859C32.0435 30.4891 31.9686 30.4942 31.8938 30.4942C30.2982 30.4929 28.7027 30.491 27.1072 30.4885C27.0919 30.4885 27.0767 30.4777 27.0247 30.4567V30.1573C27.0247 27.2244 27.026 24.2914 27.0241 21.3585C27.0241 20.6797 26.8667 20.0345 26.573 19.4229C26.4347 19.1349 26.2583 18.8716 26.0356 18.6413C25.6322 18.2226 25.1405 17.9828 24.5638 17.9067C24.2365 17.8635 23.9135 17.8737 23.5925 17.9415C23.0323 18.0608 22.5756 18.3526 22.2044 18.7834C21.8441 19.2015 21.6075 19.6868 21.4374 20.2077C21.3461 20.4875 21.2998 20.7704 21.2998 21.068C21.3049 24.0757 21.3029 27.0842 21.3023 30.092C21.3023 30.1903 21.3182 30.2912 21.2769 30.3958C21.2262 30.4022 21.178 30.4123 21.1298 30.4136C20.0614 30.4434 16.4104 30.4263 16.1566 30.3889C16.1516 30.3457 16.142 30.2988 16.1401 30.2512C16.137 30.1846 16.1389 30.1173 16.1389 30.0507C16.1389 24.8371 16.1389 19.6228 16.1389 14.4091C16.1389 14.3019 16.1414 14.194 16.1427 14.0963C16.2334 14.0303 16.319 14.0532 16.4002 14.0532C17.119 14.0513 17.8372 14.0519 18.556 14.0519H21.2433C21.3194 14.1204 21.3023 14.1909 21.3029 14.2549C21.3042 14.6895 21.3036 15.1241 21.3036 15.5587V15.8416C21.3543 15.8048 21.3835 15.7928 21.4 15.7712C22.1968 14.699 23.2791 14.0602 24.5486 13.715C25.4019 13.4828 26.2754 13.4048 27.156 13.4625C28.2662 13.5355 29.2546 13.9174 30.0787 14.6832C30.5742 15.1438 30.9536 15.69 31.2537 16.294C31.6172 17.0254 31.8468 17.7994 31.9946 18.5994C32.1329 19.3493 32.19 20.1062 32.19 20.8681C32.19 23.9761 32.19 27.0848 32.1894 30.1928C32.1894 30.2829 32.2034 30.3749 32.1799 30.4377L32.178 30.4383Z" fill="white"/>
</g>
<defs>
<clipPath id="clip0_407_74">
<rect width="36.9518" height="36.9518" fill="white" transform="translate(0.804565 0.639648)"/>
</clipPath>
</defs>
</svg>
