<svg width="38" height="33" viewBox="0 0 38 33" fill="none" xmlns="http://www.w3.org/2000/svg">
<rect width="38" height="33" rx="4" fill="#3897FC"/>
<path d="M13.9848 24C12.7559 24 12.0549 22.5964 12.7933 21.614L17.1684 15.7929L21.7386 9.59334C22.0137 9.22023 22.4496 9 22.9132 9C24.1255 9 24.8091 10.3928 24.0675 11.3518L19.8543 16.8L15.2012 23.3709C14.9218 23.7655 14.4683 24 13.9848 24ZM23.0162 24C22.532 24 22.078 23.7652 21.7982 23.3701L17.1457 16.8L12.9332 11.3527C12.1913 10.3933 12.8751 9 14.0879 9C14.5509 9 14.9864 9.21958 15.2616 9.59179L19.8316 15.7714L24.2102 21.6125C24.9478 22.5964 24.2458 24 23.0162 24Z" fill="white"/>
</svg>
