<svg width="37" height="38" viewBox="0 0 37 38" fill="none" xmlns="http://www.w3.org/2000/svg">
<g clip-path="url(#clip0_407_73)">
<path d="M36.9511 0.639648H0V37.5914H36.9518V0.639648H36.9511ZM31.2592 11.1378C31.2592 11.2038 31.258 11.3643 31.1235 11.5451C30.5265 12.3489 29.8807 13.069 29.0794 13.6704C28.9633 13.7573 28.7679 13.8487 28.7679 14.0143C28.7679 18.2362 27.6894 22.4532 24.6119 25.5104C20.6931 29.4037 14.8141 30.4632 9.5948 29.0218C8.58419 28.7427 7.61798 28.3513 6.69048 27.8602C6.38342 27.6927 6.08208 27.5195 5.78581 27.3235C5.71095 27.2626 5.65512 27.2074 5.7192 27.1675C5.78264 27.1357 5.83149 27.1332 6.06495 27.1675C7.52472 27.3115 9.02827 27.0939 10.4094 26.6117C11.1688 26.3465 12.7998 25.8124 13.2699 25.0955C13.2807 25.079 13.2921 25.079 13.3036 25.0618C13.1132 25.0174 12.9229 25.0174 12.7332 24.9838C11.3153 24.5784 9.42161 23.8673 8.54422 21.4762C8.48902 21.3366 8.54422 21.2643 8.6895 21.2922C9.85681 21.3835 10.2762 21.3195 10.6834 21.2307C10.4544 21.192 10.2203 21.1133 10.0078 21.0238C8.2213 20.3438 6.91632 18.6017 6.67842 16.7181C6.65114 16.5005 6.63338 16.3153 6.6448 16.1148C6.65558 15.9752 6.71712 15.9308 6.8402 16.0082C7.75882 16.4834 8.78973 16.595 8.87284 16.5779C8.64445 16.3996 8.43193 16.2036 8.22511 16.0082C6.67652 14.5408 6.07446 11.5553 7.31473 9.69647C7.41561 9.54548 7.48222 9.54548 7.60529 9.68568C10.4386 12.9142 13.9284 14.4209 18.1397 15.0477C18.2513 15.0642 18.2621 15.0477 18.2456 14.9246C18.1358 14.183 18.1213 13.4572 18.3008 12.7232C18.4867 11.9632 18.8496 11.2457 19.3419 10.6379C19.8177 10.0511 20.4153 9.56388 21.0852 9.21432C21.7539 8.86539 22.493 8.65287 23.246 8.60402C24.02 8.5539 24.8048 8.67824 25.5235 8.97071C26.071 9.19402 26.5564 9.49536 27.0087 9.88045C27.1038 9.95911 27.1876 10.0536 27.277 10.1545C27.3329 10.2103 27.3995 10.2325 27.4883 10.2103C28.5649 9.94135 29.5761 9.56134 30.5544 9.03732C30.5988 9.01511 30.635 9.00369 30.6914 9.0259C30.7358 9.05952 30.7193 9.11598 30.6971 9.16039C30.5227 9.732 30.2131 10.2611 29.8388 10.7255C29.5939 11.03 28.983 11.7824 28.5674 11.8528C29.4435 11.7056 30.3412 11.483 31.1533 11.1156C31.2573 11.0681 31.2586 11.0484 31.2586 11.1156V11.1378H31.2592Z" fill="white"/>
</g>
<defs>
<clipPath id="clip0_407_73">
<rect width="36.9518" height="36.9518" fill="white" transform="translate(0 0.639648)"/>
</clipPath>
</defs>
</svg>
