<svg width="769" height="205" viewBox="0 0 769 205" fill="none" xmlns="http://www.w3.org/2000/svg">
<g style="mix-blend-mode:color-burn">
<path d="M136.892 110.416V200.757H100.644V122.127C100.644 102.901 88.3754 90.3405 69.4151 90.3405C50.4547 90.3405 36.2478 103.167 36.2478 122.685V200.757H0V58.5541H36.2478V74.434C47.4009 61.8734 63.0153 55.2081 81.418 55.2081C114.877 55.2081 136.892 76.9567 136.892 110.416Z" fill="#E5E5E5"/>
<path d="M155.002 129.669C155.002 87.2869 187.904 55.2349 231.401 55.2349C274.899 55.2349 307.8 87.2869 307.8 129.669C307.8 172.051 274.899 204.103 231.401 204.103C187.904 204.103 155.002 172.051 155.002 129.669ZM270.437 129.669C270.437 107.363 254 90.3673 231.401 90.3673C208.803 90.3673 192.365 107.363 192.365 129.669C192.365 151.975 209.095 168.97 231.401 168.97C253.708 168.97 270.437 151.975 270.437 129.669Z" fill="#E5E5E5"/>
<path d="M472.017 0V200.757H435.769V183.761C424.351 196.295 408.444 204.103 389.484 204.103C349.89 204.103 320.069 172.051 320.069 129.669C320.069 87.2867 349.89 55.2346 389.484 55.2346C408.444 55.2346 424.324 63.0419 435.769 75.5759V0.026581H472.017V0ZM435.769 129.642C435.769 107.336 419.04 90.3405 396.468 90.3405C373.896 90.3405 357.432 107.336 357.432 129.642C357.432 151.948 374.162 168.944 396.468 168.944C418.774 168.944 435.769 151.948 435.769 129.642Z" fill="#E5E5E5"/>
<path d="M498.811 144.168V58.5807H535.059V139.149C535.059 157.26 547.035 168.97 565.172 168.97C583.31 168.97 595.286 157.26 595.286 139.149V58.5807H631.534V144.168C631.534 180.416 605.058 204.103 565.172 204.103C525.287 204.103 498.811 180.416 498.811 144.168V144.168Z" fill="#E5E5E5"/>
<path d="M647.414 182.354L664.993 158.375C675.854 167.855 689.53 174.255 706.525 174.255C721.024 174.255 731.62 169.528 731.62 160.871C731.62 151.391 719.351 148.045 703.737 144.433C681.165 139.415 651.875 132.431 651.875 100.113C651.875 69.9995 678.35 55.2349 709.871 55.2349C734.116 55.2349 752.253 63.8653 765.079 73.9031L747.5 98.1479C737.196 90.3407 725.194 85.0297 710.694 85.0297C698.426 85.0297 688.388 88.9333 688.388 97.2982C688.388 106.778 700.364 109.859 716.271 113.178C738.869 118.197 768.133 125.181 768.133 157.499C768.133 187.612 741.366 204.05 707.348 204.05C680.873 204.05 661.063 194.012 647.414 182.301V182.354Z" fill="#E5E5E5"/>
</g>
</svg>
