<svg width="219" height="64" viewBox="0 0 219 64" fill="none" xmlns="http://www.w3.org/2000/svg">
<path d="M39.2513 6.91628C39.0459 7.13709 38.9278 8.03059 39.544 8.41572C39.7391 8.53897 39.9599 8.61086 40.1602 8.70843C43.5083 10.3311 45.855 12.1746 47.8834 14.3314C50.9439 17.5819 52.4844 21.3562 52.9928 25.5977C53.5063 29.865 52.6128 39.863 51.4831 44.9981C50.7487 48.3359 50.0709 51.5094 50.0709 51.5094C49.6961 52.7572 49.2596 52.0999 48.3404 51.2373C48.3199 51.2218 48.3096 51.1962 48.2942 51.1756L40.6378 44.2176C40.2578 43.627 39.4721 43.4525 38.8764 43.8325C38.2859 44.2124 38.1113 44.9981 38.4913 45.5938L49.085 62.2315C49.2801 62.555 49.5882 62.8015 49.9477 62.9145C50.1171 62.9709 50.302 63.0274 50.4817 63.0839C51.6936 63.4793 53.5474 63.3715 53.9274 62.1545L54.0609 61.7282C55.8274 56.0848 57.0187 49.9689 58.1792 44.7054C59.3398 39.4419 60.2897 29.1255 59.73 24.4526C59.1652 19.7489 57.4295 15.4457 53.9479 11.7433C51.5704 9.2168 47.1953 6.34628 42.5018 4.90332C41.295 4.5336 40.5813 4.45657 40.2629 4.86224" fill="url(#paint0_linear_253_786)"/>
<path d="M19.9639 56.7574C20.1796 56.5417 20.3234 55.6533 19.7226 55.2477C19.5326 55.1193 19.3118 55.0423 19.1166 54.9344C15.8251 53.1988 13.5399 51.2834 11.5835 49.0599C8.63592 45.7118 7.21864 41.8862 6.84891 37.6292C6.47919 33.3465 7.6962 23.3844 9.00051 18.2904C9.84267 14.9783 10.6283 11.8305 10.6283 11.8305C11.0443 10.598 11.4602 11.2656 12.3486 12.1591C12.364 12.1745 12.3743 12.2002 12.3897 12.2207L19.8099 19.4253C20.1693 20.0312 20.9499 20.2315 21.5558 19.872C22.1618 19.5126 22.362 18.732 22.0026 18.1261L11.9635 1.14947C11.7786 0.815685 11.4808 0.564066 11.1213 0.435689C10.9519 0.374068 10.767 0.312446 10.5975 0.250825C9.39592 -0.185658 7.54215 -0.134304 7.12107 1.06731L6.97215 1.48838C5.01568 7.07023 3.62407 13.1399 2.29408 18.3623C0.964096 23.5847 -0.329947 33.86 0.0757253 38.5535C0.481398 43.2726 2.07841 47.6323 5.43676 51.4477C7.72701 54.0512 12.0045 57.0603 16.6518 58.6625C17.8483 59.0733 18.5569 59.176 18.8856 58.7755" fill="url(#paint1_linear_253_786)"/>
<path d="M35.128 27.2102C34.2909 24.8994 32.0572 23.3332 29.4434 23.2305C27.8361 23.1637 26.3059 23.6618 24.9708 24.6272L25.2172 23.3742C25.2686 23.1175 25.2275 22.8659 25.1299 22.6399H25.1351L25.1145 22.5988C25.0683 22.5013 25.0067 22.4037 24.9348 22.3216L24.4059 21.5051C23.9694 20.8529 23.0297 20.7553 22.5008 21.3305C22.4751 21.3562 22.4546 21.3818 22.4289 21.4126C22.1002 21.8183 22.0848 22.3934 22.3673 22.8351C22.5111 23.061 22.6292 23.2356 22.7216 23.3845C22.3519 25.1407 21.6843 28.3964 21.6021 29.1358C21.5148 29.711 21.8075 30.2964 22.3621 30.548C23.0348 30.8561 23.8256 30.5582 24.1337 29.8855C25.8335 26.1677 28.324 25.8596 29.3202 25.9007C30.8196 25.9623 32.1342 26.8558 32.5964 28.1242C33.1715 29.7161 32.355 31.6674 30.3575 33.475C29.808 33.9731 29.7669 34.8152 30.265 35.3647C30.4653 35.5855 30.7221 35.7241 30.9942 35.7806C31.3948 35.8577 31.8261 35.7549 32.1548 35.4622C34.9996 32.8844 36.078 29.8753 35.1126 27.2153L35.128 27.2102Z" fill="url(#paint2_linear_253_786)"/>
<path d="M37.5774 40.1197C37.9882 38.1479 38.7482 34.4403 38.6865 34.2863H38.6763C38.6506 33.8087 38.3733 33.3517 37.9009 33.1411C37.2282 32.833 36.4374 33.1309 36.1293 33.8036C34.4296 37.5214 31.939 37.8295 30.9428 37.7884C29.4434 37.7268 28.1288 36.8333 27.6666 35.5701C27.0915 33.9782 27.908 32.0268 29.9055 30.2141C30.455 29.716 30.4961 28.8739 29.998 28.3244C29.4999 27.775 28.6577 27.7339 28.1083 28.232C25.2634 30.8098 24.185 33.819 25.1504 36.479C25.8745 38.4765 27.6307 39.9092 29.7823 40.3354C30.1264 40.4022 30.4755 40.4432 30.835 40.4587C32.4423 40.5254 33.9674 40.0324 35.3025 39.067L35.0766 40.207C34.9893 40.6487 35.1536 41.0749 35.4566 41.3573L36.2114 42.2919C36.7095 42.8978 37.6544 42.8978 38.1268 42.2713C38.1474 42.2405 38.1679 42.2149 38.1884 42.184C38.476 41.7476 38.4298 41.1724 38.1011 40.7668C37.8752 40.4843 37.7057 40.2789 37.5825 40.1249L37.5774 40.1197Z" fill="url(#paint3_linear_253_786)"/>
<path d="M96.9338 32.3092V49.7787H89.9244V34.5737C89.9244 30.8559 87.552 28.427 83.8855 28.427C80.2191 28.427 77.4718 30.9073 77.4718 34.6816V49.7787H70.4624V22.2803H77.4718V25.3511C79.6285 22.9222 82.648 21.6333 86.2066 21.6333C92.6768 21.6333 96.9338 25.8389 96.9338 32.3092Z" fill="#E5E5E5"/>
<path d="M100.436 36.0321C100.436 27.8365 106.798 21.6384 115.21 21.6384C123.621 21.6384 129.983 27.8365 129.983 36.0321C129.983 44.2277 123.621 50.4257 115.21 50.4257C106.798 50.4257 100.436 44.2277 100.436 36.0321ZM122.758 36.0321C122.758 31.7186 119.58 28.4322 115.21 28.4322C110.84 28.4322 107.661 31.7186 107.661 36.0321C107.661 40.3456 110.896 43.632 115.21 43.632C119.523 43.632 122.758 40.3456 122.758 36.0321Z" fill="#E5E5E5"/>
<path d="M161.739 10.9575V49.7788H154.729V46.4924C152.521 48.9161 149.445 50.4258 145.779 50.4258C138.122 50.4258 132.356 44.2278 132.356 36.0322C132.356 27.8366 138.122 21.6385 145.779 21.6385C149.445 21.6385 152.516 23.1482 154.729 25.572V10.9627H161.739V10.9575ZM154.729 36.027C154.729 31.7136 151.494 28.4271 147.129 28.4271C142.765 28.4271 139.581 31.7136 139.581 36.027C139.581 40.3405 142.816 43.627 147.129 43.627C151.443 43.627 154.729 40.3405 154.729 36.027Z" fill="#E5E5E5"/>
<path d="M166.92 38.8358V22.2854H173.929V37.8653C173.929 41.3674 176.245 43.632 179.753 43.632C183.26 43.632 185.576 41.3674 185.576 37.8653V22.2854H192.585V38.8358C192.585 45.8452 187.465 50.4257 179.753 50.4257C172.04 50.4257 166.92 45.8452 166.92 38.8358Z" fill="#E5E5E5"/>
<path d="M195.656 46.2201L199.055 41.5831C201.156 43.4164 203.8 44.6539 207.087 44.6539C209.89 44.6539 211.939 43.7399 211.939 42.0658C211.939 40.2326 209.567 39.5856 206.548 38.8872C202.183 37.9167 196.519 36.5661 196.519 30.3167C196.519 24.4935 201.638 21.6384 207.734 21.6384C212.422 21.6384 215.929 23.3073 218.41 25.2484L215.01 29.9367C213.018 28.427 210.697 27.4 207.893 27.4C205.521 27.4 203.579 28.1549 203.579 29.7724C203.579 31.6056 205.895 32.2013 208.971 32.8432C213.341 33.8137 219 35.1643 219 41.4137C219 47.2369 213.824 50.4155 207.246 50.4155C202.126 50.4155 198.295 48.4744 195.656 46.2098V46.2201Z" fill="#E5E5E5"/>
<defs>
<linearGradient id="paint0_linear_253_786" x1="38.29" y1="33.9398" x2="59.8951" y2="33.9398" gradientUnits="userSpaceOnUse">
<stop stop-color="#ED775B"/>
<stop offset="0.395833" stop-color="#FF7D61"/>
<stop offset="0.6875" stop-color="#ED775B"/>
<stop offset="1" stop-color="#FE4C46"/>
</linearGradient>
<linearGradient id="paint1_linear_253_786" x1="0" y1="29.5143" x2="22.1812" y2="29.5143" gradientUnits="userSpaceOnUse">
<stop stop-color="#ED775B"/>
<stop offset="0.395833" stop-color="#FF7D61"/>
<stop offset="0.6875" stop-color="#ED775B"/>
<stop offset="1" stop-color="#FE4C46"/>
</linearGradient>
<linearGradient id="paint2_linear_253_786" x1="21.5869" y1="28.3786" x2="35.4583" y2="28.3786" gradientUnits="userSpaceOnUse">
<stop stop-color="#ED775B"/>
<stop offset="0.395833" stop-color="#FF7D61"/>
<stop offset="0.6875" stop-color="#ED775B"/>
<stop offset="1" stop-color="#FE4C46"/>
</linearGradient>
<linearGradient id="paint3_linear_253_786" x1="24.8047" y1="35.3138" x2="38.6901" y2="35.3138" gradientUnits="userSpaceOnUse">
<stop stop-color="#ED775B"/>
<stop offset="0.395833" stop-color="#FF7D61"/>
<stop offset="0.6875" stop-color="#ED775B"/>
<stop offset="1" stop-color="#FE4C46"/>
</linearGradient>
</defs>
</svg>
